<?xml version="1.0" encoding="UTF-8" standalone="no"?>
<!DOCTYPE svg PUBLIC "-//W3C//DTD SVG 1.1//EN" "http://www.w3.org/Graphics/SVG/1.1/DTD/svg11.dtd">
<svg width="100%" height="100%" viewBox="0 0 144 144" version="1.1" xmlns="http://www.w3.org/2000/svg" xmlns:xlink="http://www.w3.org/1999/xlink" xml:space="preserve" xmlns:serif="http://www.serif.com/" style="fill-rule:evenodd;clip-rule:evenodd;stroke-linejoin:round;stroke-miterlimit:2;">
    <g transform="matrix(1.720106,0,0,1.720106,18.258787,24.202266)">
        <path d="M0,55.573C-3.271,56.686 -6.888,55.108 -8.076,52.035L-10.232,46.481C-11.425,43.413 -9.737,40.017 -6.466,38.9C-3.198,37.786 0.424,39.365 1.612,42.434L3.765,47.992C4.961,51.059 3.273,54.456 0,55.573M21.013,55.573C17.742,56.686 14.126,55.108 12.935,52.035L-4.313,7.585C-5.506,4.512 -3.819,1.121 -0.546,0.004C2.728,-1.113 6.342,0.469 7.535,3.536L24.781,47.992C25.967,51.064 24.282,54.456 21.013,55.573M42.022,55.573C38.749,56.686 35.134,55.108 33.943,52.035L16.698,7.585C15.507,4.512 17.192,1.121 20.461,0.004C23.734,-1.113 27.353,0.469 28.544,3.536L45.787,47.992C46.982,51.064 45.293,54.456 42.022,55.573M63.033,55.573C59.76,56.686 56.143,55.108 54.952,52.035L37.706,7.585C36.516,4.512 38.201,1.121 41.476,0.004C44.743,-1.113 48.362,0.469 49.552,3.536L66.802,47.992C67.991,51.064 66.301,54.456 63.033,55.573M68.949,16.673C65.683,17.79 62.061,16.207 60.873,13.139L58.717,7.585C57.524,4.512 59.212,1.121 62.483,0.004C65.756,-1.113 69.373,0.469 70.563,3.536L72.719,9.096C73.91,12.163 72.222,15.555 68.949,16.673" style="fill:rgb(34,62,124);fill-rule:nonzero;"/>
    </g>
</svg>
