<?xml version="1.0" encoding="UTF-8" standalone="no"?>
<!DOCTYPE svg PUBLIC "-//W3C//DTD SVG 1.1//EN" "http://www.w3.org/Graphics/SVG/1.1/DTD/svg11.dtd">
<svg width="100%" height="100%" viewBox="0 0 7034 1305" version="1.1" xmlns="http://www.w3.org/2000/svg" xmlns:xlink="http://www.w3.org/1999/xlink" xml:space="preserve" xmlns:serif="http://www.serif.com/" style="fill-rule:evenodd;clip-rule:evenodd;stroke-linejoin:round;stroke-miterlimit:2;">
    <g id="Logo">
        <g id="Binderplus">
            <path d="M1872.77,930.394L2099.49,930.394C2132.84,930.394 2162.12,924.377 2187.31,912.299C2212.48,900.25 2232.37,882.673 2246.91,859.61C2261.46,836.563 2268.73,808.356 2268.73,774.989C2268.73,743.781 2261.46,717.525 2246.91,696.222C2232.37,674.934 2212.48,658.612 2187.31,647.273C2162.12,635.92 2132.84,630.228 2099.49,630.228L1872.77,630.228L1872.77,930.394ZM1872.77,536.559L2079.27,536.559C2120.41,536.559 2154.31,525.752 2180.92,504.094C2207.53,482.451 2220.84,451.051 2220.84,409.893C2220.84,368.751 2207.53,337.882 2180.92,317.289C2154.31,296.71 2120.41,286.421 2079.27,286.421L1872.77,286.421L1872.77,536.559ZM1824.87,1024.06C1809.97,1024.06 1797.55,1019.27 1787.62,1009.69C1777.67,1000.11 1772.72,988.242 1772.72,974.035L1772.72,242.779C1772.72,227.878 1777.5,215.829 1787.08,206.589C1796.66,197.379 1808.54,192.752 1822.74,192.752L2079.27,192.752C2124.68,192.752 2165.31,201.992 2201.14,220.427C2236.96,238.891 2265.17,264.437 2285.76,297.065C2306.34,329.707 2316.63,367.317 2316.63,409.893C2316.63,446.084 2306.88,478.548 2287.36,507.288C2267.85,536.027 2241.75,558.217 2209.13,573.814C2255.96,585.892 2293.75,608.94 2322.49,643.016C2351.23,677.062 2365.6,721.073 2365.6,774.989C2365.6,823.952 2354.24,867.061 2331.53,904.316C2308.83,941.571 2277.43,970.842 2237.33,992.13C2197.24,1013.42 2151.28,1024.06 2099.49,1024.06L1824.87,1024.06Z" style="fill:rgb(34,62,124);fill-rule:nonzero;"/>
            <path d="M2470.97,1024.06C2456.07,1024.06 2443.99,1019.45 2434.78,1010.22C2425.55,1001.01 2420.94,989.303 2420.94,975.096L2420.94,490.786C2420.94,475.884 2425.55,464.013 2434.78,455.128C2443.99,446.272 2456.07,441.822 2470.97,441.822C2485.15,441.822 2496.86,446.272 2506.1,455.128C2515.31,464.013 2519.93,475.884 2519.93,490.786L2519.93,975.096C2519.93,989.303 2515.31,1001.01 2506.1,1010.22C2496.86,1019.45 2485.15,1024.06 2470.97,1024.06M2469.91,340.703C2452.16,340.703 2436.91,334.316 2424.14,321.543C2411.36,308.77 2404.98,293.173 2404.98,274.709C2404.98,256.259 2411.53,240.839 2424.67,228.406C2437.78,216.003 2453.23,209.779 2470.97,209.779C2488,209.779 2503.07,216.003 2516.21,228.406C2529.34,240.839 2535.9,256.259 2535.9,274.709C2535.9,293.173 2529.51,308.77 2516.74,321.543C2503.97,334.316 2488.36,340.703 2469.91,340.703" style="fill:rgb(34,62,124);fill-rule:nonzero;"/>
            <path d="M3493.87,941.034C3532.19,941.034 3566.25,932.001 3596.05,913.891C3625.86,895.796 3649.44,870.974 3666.84,839.382C3684.21,807.819 3692.9,772.161 3692.9,732.423C3692.9,692.684 3684.21,657.204 3666.84,625.966C3649.44,594.758 3625.86,570.084 3596.05,551.989C3566.25,533.894 3532.19,524.846 3493.87,524.846C3456.97,524.846 3423.25,533.894 3392.75,551.989C3362.24,570.084 3338.29,594.758 3320.9,625.966C3303.52,657.204 3294.82,692.684 3294.82,732.423C3294.82,772.161 3303.52,807.819 3320.9,839.382C3338.29,870.974 3362.24,895.796 3392.75,913.891C3423.25,932.001 3456.97,941.034 3493.87,941.034M3493.87,1028.32C3438.52,1028.32 3388.66,1015.38 3344.32,989.465C3299.97,963.564 3264.84,928.276 3238.94,883.555C3213.03,838.864 3200.09,788.482 3200.09,732.423C3200.09,676.378 3212.15,626.158 3236.28,581.792C3260.41,537.456 3293.39,502.331 3335.27,476.415C3377.14,450.529 3424.68,437.564 3477.9,437.564C3521.9,437.564 3562.16,446.789 3598.72,465.239C3635.25,483.703 3665.6,508.54 3689.72,539.748L3689.72,241.711C3689.72,226.809 3694.32,214.938 3703.56,206.053C3712.77,197.197 3724.48,192.747 3738.7,192.747C3753.6,192.747 3765.64,197.197 3774.88,206.053C3784.09,214.938 3788.71,226.809 3788.71,241.711L3788.71,734.537C3787.99,789.886 3774.71,839.914 3748.81,884.634C3722.88,929.325 3687.76,964.451 3643.42,990.012C3599.07,1015.54 3549.22,1028.32 3493.87,1028.32" style="fill:rgb(34,62,124);fill-rule:nonzero;"/>
            <path d="M5147.95,941.034C5186.27,941.034 5220.49,932.001 5250.65,913.891C5280.81,895.796 5304.58,870.974 5321.97,839.382C5339.35,807.819 5348.06,772.516 5348.06,733.487C5348.06,693.734 5339.35,658.076 5321.97,626.513C5304.58,594.935 5280.81,570.084 5250.65,551.989C5220.49,533.894 5186.61,524.846 5149,524.846C5111.39,524.846 5077.51,534.086 5047.35,552.521C5017.19,570.986 4993.61,595.807 4976.58,627.045C4959.55,658.268 4951.03,693.734 4951.03,733.487C4951.03,772.516 4959.55,807.819 4976.58,839.382C4993.61,870.974 5017.19,895.796 5047.35,913.891C5077.51,932.001 5111.03,941.034 5147.95,941.034M4904.2,1273.15C4889.99,1273.15 4878.28,1268.51 4869.07,1259.3C4859.85,1250.07 4855.23,1238.36 4855.23,1224.17L4855.23,731.343C4855.93,675.994 4869.23,625.966 4895.14,581.26C4921.04,536.555 4955.98,501.429 4999.99,475.883C5043.99,450.337 5093.3,437.564 5147.95,437.564C5204.7,437.564 5255.28,450.529 5299.63,476.415C5343.97,502.331 5379.09,537.619 5405.01,582.325C5430.91,627.045 5443.86,677.428 5443.86,733.487C5443.86,789.546 5431.6,839.751 5407.12,884.087C5382.65,928.438 5349.48,963.564 5307.61,989.465C5265.73,1015.38 5218.54,1028.32 5166.05,1028.32C5121.34,1028.32 5080.89,1019.11 5044.7,1000.64C5008.5,982.206 4977.98,957.37 4953.15,926.132L4953.15,1224.17C4953.15,1238.36 4948.71,1250.07 4939.86,1259.3C4930.97,1268.51 4919.1,1273.15 4904.2,1273.15" style="fill:rgb(34,62,124);fill-rule:nonzero;"/>
            <path d="M5632.24,1024.06C5602.42,1024.06 5575.82,1015.91 5552.41,999.593C5528.99,983.257 5510.7,960.727 5497.59,931.987C5484.45,903.248 5477.9,870.088 5477.9,832.464L5477.9,240.647C5477.9,226.455 5482.3,214.939 5491.2,206.054C5500.07,197.183 5511.59,192.748 5525.8,192.748C5540.7,192.748 5552.56,197.183 5561.46,206.054C5570.33,214.939 5574.75,226.455 5574.75,240.647L5574.75,832.464C5574.75,860.139 5580.08,882.861 5590.71,900.587C5601.36,918.342 5615.21,927.197 5632.24,927.197L5658.85,927.197C5672.32,927.197 5682.96,931.647 5690.78,940.517C5698.57,949.388 5702.49,961.259 5702.49,976.161C5702.49,990.368 5696.62,1001.9 5684.91,1010.77C5673.2,1019.64 5658.13,1024.06 5639.69,1024.06L5632.24,1024.06Z" style="fill:rgb(34,62,124);fill-rule:nonzero;"/>
            <path d="M6541.24,1028.32C6494.41,1028.32 6450.06,1021.06 6408.19,1006.5C6366.31,991.967 6333.32,971.92 6309.21,946.359C6299.97,935.715 6296.05,924.007 6297.49,911.234C6298.89,898.461 6305.29,887.476 6316.66,878.251C6328.71,869.026 6341.13,865.124 6353.9,866.543C6366.68,867.962 6377.32,873.624 6385.84,883.559C6400.03,899.185 6420.78,912.668 6448.1,924.007C6475.42,935.375 6505.4,941.037 6538.05,941.037C6584.17,941.037 6618.41,933.424 6640.76,918.152C6663.12,902.91 6674.63,883.914 6675.36,861.206C6675.36,837.789 6664.34,818.097 6642.36,802.131C6620.36,786.164 6581.69,773.584 6526.34,764.359C6454.67,750.861 6402.5,729.928 6369.87,701.543C6337.23,673.173 6320.92,638.742 6320.92,598.294C6320.92,562.104 6331.02,532.138 6351.24,508.351C6371.48,484.579 6398.08,466.839 6431.07,455.13C6464.07,443.421 6499.02,437.567 6535.93,437.567C6582.77,437.567 6623.91,445.195 6659.39,460.452C6694.87,475.724 6723.27,496.82 6744.54,523.785C6753.75,534.429 6757.85,545.428 6756.78,556.782C6755.72,568.136 6749.87,577.73 6739.24,585.521C6728.58,591.908 6716.34,594.037 6702.5,591.908C6688.68,589.779 6677.12,583.762 6667.91,573.813C6650.17,555.363 6630.47,542.412 6608.83,534.961C6587.17,527.511 6562.16,523.785 6533.79,523.785C6499.73,523.785 6471.52,530.172 6449.17,542.945C6426.82,555.718 6415.64,573.103 6415.64,595.101C6415.64,609.308 6419.36,621.712 6426.82,632.356C6434.28,643.015 6448.28,652.772 6468.86,661.627C6489.44,670.512 6518.89,678.495 6557.21,685.577C6610.44,695.526 6652.47,708.654 6683.34,724.96C6714.21,741.296 6736.38,760.456 6749.87,782.439C6763.33,804.437 6770.09,829.273 6770.09,856.948C6770.09,889.59 6761.04,918.877 6742.96,944.778C6724.85,970.678 6698.77,991.065 6664.73,1005.97C6630.65,1020.87 6589.49,1028.32 6541.24,1028.32" style="fill:rgb(34,62,124);fill-rule:nonzero;"/>
            <path d="M2710.46,669.614L2710.46,976.152C2710.46,990.359 2706.03,1002.07 2697.16,1011.29C2688.27,1020.52 2676.4,1025.13 2661.5,1025.13C2647.29,1025.13 2635.58,1020.52 2626.37,1011.29C2617.15,1002.07 2612.53,990.359 2612.53,976.152L2612.53,490.792C2612.53,475.89 2617.15,464.004 2626.37,455.134C2635.58,446.264 2647.29,441.829 2661.5,441.829C2676.4,441.829 2688.27,446.264 2697.16,455.134C2706.03,464.004 2710.46,475.89 2710.46,490.792L2710.46,511.634C2727.48,493.986 2747.35,479.056 2770.07,466.843C2807.68,446.619 2849.9,436.507 2896.74,436.507C2946.41,436.507 2990.76,446.988 3029.79,467.907C3068.8,488.841 3099.67,519.531 3122.39,559.979C3145.09,600.427 3156.45,649.745 3156.45,707.934L3156.45,976.152C3156.45,989.665 3151.66,1001.18 3142.08,1010.76C3132.5,1020.34 3120.96,1025.13 3107.49,1025.13C3093.28,1025.13 3081.41,1020.34 3071.83,1010.76C3062.25,1001.18 3057.46,989.665 3057.46,976.152L3057.46,707.934C3057.46,666.066 3049.64,631.828 3034.05,605.217C3018.43,578.607 2997.49,558.752 2971.24,545.61C2944.99,532.482 2914.83,525.918 2880.77,525.918C2848.84,525.918 2820.1,532.304 2794.55,545.077C2769.01,557.85 2748.6,574.881 2733.35,596.17C2718.08,617.458 2710.46,641.94 2710.46,669.614Z" style="fill:rgb(34,62,124);"/>
            <path d="M3942.75,770.73C3946.67,794.996 3954.57,817.355 3966.46,837.789C3984.18,868.317 4008.67,892.444 4039.9,910.169C4071.11,927.924 4106.96,936.794 4147.41,936.794C4169.39,936.794 4191.94,932.699 4214.99,924.539C4238.05,916.393 4256.68,906.976 4270.88,896.332C4281.51,888.541 4293.06,884.46 4305.46,884.091C4317.88,883.751 4328.72,887.476 4337.94,895.267C4349.99,905.911 4356.38,917.62 4357.1,930.393C4357.78,943.166 4352.13,954.18 4340.06,963.39C4315.93,982.55 4285.95,998.176 4250.11,1010.23C4214.28,1022.3 4180.04,1028.32 4147.41,1028.32C4088.5,1028.32 4036.18,1015.72 3990.41,990.533C3944.62,965.356 3908.79,930.585 3882.89,886.22C3856.97,841.884 3844.04,790.954 3844.04,733.49C3844.04,675.302 3856.29,624.018 3880.77,579.667C3905.24,535.331 3939.12,500.545 3982.43,475.354C4025.7,450.178 4075.37,437.567 4131.44,437.567C4186.79,437.567 4234.32,449.808 4274.06,474.29C4313.8,498.771 4344.15,532.478 4365.08,575.409C4386,618.356 4396.48,667.851 4396.48,723.896C4396.48,737.378 4391.86,748.555 4382.65,757.425C4373.41,766.31 4361.7,770.73 4347.51,770.73L3942.75,770.73ZM3943.95,685.577L4298.46,685.577C4295.33,661.88 4288.98,640.059 4279.4,620.115C4265.91,592.085 4246.76,569.925 4221.92,553.589C4197.05,537.268 4166.91,529.107 4131.44,529.107C4091,529.107 4056.4,537.992 4027.65,555.718C3998.92,573.458 3977.09,597.762 3962.2,628.63C3953.68,646.276 3947.6,665.26 3943.95,685.577Z" style="fill:rgb(34,62,124);"/>
            <path d="M4550.81,660.03L4550.81,970.841C4550.81,987.871 4546.37,1001.01 4537.5,1010.22C4528.63,1019.45 4515.31,1024.06 4497.58,1024.06C4480.55,1024.06 4467.41,1019.64 4458.2,1010.77C4448.98,1001.9 4444.38,988.596 4444.38,970.841L4444.38,495.045C4444.38,478.015 4448.98,464.887 4458.2,455.662C4467.41,446.452 4480.55,441.824 4497.58,441.824C4515.31,441.824 4528.63,446.274 4537.5,455.13C4546.37,464.015 4550.81,477.32 4550.81,495.045L4550.81,514.736C4568.09,495.11 4588.67,478.607 4612.56,465.242C4648.02,445.387 4687.07,435.438 4729.64,435.438C4772.2,435.438 4803.96,442.357 4824.89,456.194C4845.81,470.031 4853.8,486.53 4848.84,505.689C4846.71,515.639 4842.62,523.252 4836.6,528.575C4830.57,533.897 4823.65,537.267 4815.86,538.686C4808.03,540.12 4799.51,539.751 4790.3,537.622C4744.88,528.412 4704.08,527.687 4667.89,535.493C4631.72,543.314 4603.14,557.846 4582.21,579.134C4561.27,600.423 4550.81,627.403 4550.81,660.03Z" style="fill:rgb(34,62,124);"/>
            <path d="M6154.86,953.84C6137.92,971.717 6118.05,986.786 6095.25,999.06C6057.62,1019.27 6015.42,1029.38 5968.58,1029.38C5918.91,1029.38 5874.56,1018.92 5835.53,997.981C5796.49,977.062 5765.62,946.357 5742.93,905.909C5720.2,865.461 5708.88,816.158 5708.88,757.955L5708.88,489.721C5708.88,476.253 5713.65,464.707 5723.23,455.128C5732.82,445.548 5744.35,440.758 5757.83,440.758C5772.02,440.758 5783.91,445.548 5793.49,455.128C5803.07,464.707 5807.86,476.253 5807.86,489.721L5807.86,757.955C5807.86,799.112 5815.66,833.189 5831.27,860.139C5846.87,887.119 5868,907.166 5894.61,920.279C5921.22,933.421 5951.18,939.985 5984.55,939.985C6017.18,939.985 6046.11,933.584 6071.3,920.826C6096.48,908.038 6116.7,890.845 6131.97,869.187C6147.23,847.558 6154.86,823.254 6154.86,796.274L6154.86,489.721C6154.86,475.529 6159.47,463.82 6168.69,454.595C6177.9,445.385 6189.61,440.758 6203.82,440.758C6218.01,440.758 6229.72,445.385 6238.95,454.595C6248.16,463.82 6252.8,475.529 6252.8,489.721L6252.8,975.096C6252.8,989.303 6248.16,1001.01 6238.95,1010.22C6229.72,1019.45 6218.01,1024.06 6203.82,1024.06C6189.61,1024.06 6177.9,1019.45 6168.69,1010.22C6159.47,1001.01 6154.86,989.303 6154.86,975.096L6154.86,953.84Z" style="fill:rgb(34,62,124);"/>
        </g>
        <path id="Pictograma" d="M417.357,1019.57C369,1036.02 315.528,1012.7 297.965,967.266L266.091,885.158C248.454,839.802 273.409,789.597 321.766,773.083C370.079,756.614 423.625,779.958 441.188,825.329L473.017,907.496C490.698,952.837 465.744,1003.06 417.357,1019.57M728.005,1019.57C679.648,1036.02 626.19,1012.7 608.583,967.266L353.595,310.135C335.959,264.705 360.898,214.574 409.285,198.061C457.687,181.547 511.115,204.935 528.751,250.276L783.709,907.496C801.243,952.911 776.332,1003.06 728.005,1019.57M1038.59,1019.57C990.207,1036.02 936.764,1012.7 919.157,967.266L664.214,310.135C646.606,264.705 671.517,214.574 719.844,198.061C768.231,181.547 821.733,204.935 839.34,250.276L1094.25,907.496C1111.92,952.911 1086.95,1003.06 1038.59,1019.57M1349.21,1019.57C1300.83,1036.02 1247.35,1012.7 1229.75,967.266L974.787,310.135C957.195,264.705 982.105,214.574 1030.52,198.061C1078.82,181.547 1132.32,204.935 1149.91,250.276L1404.93,907.496C1422.51,952.911 1397.52,1003.06 1349.21,1019.57M1436.67,444.488C1388.39,461.002 1334.84,437.599 1317.28,392.243L1285.4,310.135C1267.77,264.705 1292.72,214.574 1341.08,198.061C1389.47,181.547 1442.94,204.935 1460.53,250.276L1492.4,332.473C1510.01,377.814 1485.06,427.96 1436.67,444.488" style="fill:rgb(34,62,124);fill-rule:nonzero;"/>
    </g>
</svg>
